<svg xmlns="http://www.w3.org/2000/svg" viewBox="0 0 318.398 58.755"><defs><style>.a{fill:none;}.b,.d{fill:#fff;}.c,.f{fill:#e2e21e;}.d{font-size:39px;font-family:GothamHTF-Black, Gotham HTF;font-weight:800;letter-spacing:0.1em;}.e,.f{stroke:none;}</style></defs><g transform="translate(-251 -426)"><g class="a" transform="translate(494 439)"><path class="e" d="M5,0H70.4a5,5,0,0,1,5,5V30.083a5,5,0,0,1-5,5H5a5,5,0,0,1-5-5V5A5,5,0,0,1,5,0Z"/><path class="f" d="M 4.999992370605469 2.999992370605469 C 3.897193908691406 2.999992370605469 2.999992370605469 3.897193908691406 2.999992370605469 4.999994277954102 L 2.999992370605469 30.08330535888672 C 2.999992370605469 31.18610572814941 3.897193908691406 32.08330535888672 4.999992370605469 32.08330535888672 L 70.39835357666016 32.08330535888672 C 71.50115203857422 32.08330535888672 72.39835357666016 31.18610572814941 72.39835357666016 30.08330535888672 L 72.39835357666016 4.999994277954102 C 72.39835357666016 3.897193908691406 71.50115203857422 2.999992370605469 70.39835357666016 2.999992370605469 L 4.999992370605469 2.999992370605469 M 4.999992370605469 -7.62939453125e-06 L 70.39835357666016 -7.62939453125e-06 C 73.15978240966797 -7.62939453125e-06 75.39835357666016 2.238567352294922 75.39835357666016 4.999994277954102 L 75.39835357666016 30.08330535888672 C 75.39835357666016 32.84473037719727 73.15978240966797 35.08330535888672 70.39835357666016 35.08330535888672 L 4.999992370605469 35.08330535888672 C 2.238578796386719 35.08330535888672 -7.62939453125e-06 32.84473037719727 -7.62939453125e-06 30.08330535888672 L -7.62939453125e-06 4.999994277954102 C -7.62939453125e-06 2.238567352294922 2.238578796386719 -7.62939453125e-06 4.999992370605469 -7.62939453125e-06 Z"/></g><path class="b" d="M-11.713-11.22-14.5-4.42l-2.8-6.8h-2.6L-14.892.2h.765l5-11.424Zm11.73,0H-4.2V0h2.3V-3.961H.017A4.207,4.207,0,0,0,2.932-4.972,3.36,3.36,0,0,0,4.063-7.6a3.328,3.328,0,0,0-1.13-2.626A4.252,4.252,0,0,0,.017-11.22Zm0,2.023a1.714,1.714,0,0,1,1.241.442A1.532,1.532,0,0,1,1.717-7.6a1.6,1.6,0,0,1-.45,1.181,1.689,1.689,0,0,1-1.25.451H-1.9V-9.2ZM16.558-11.22v6.681l-6.511-6.885H9.3V0h2.3V-6.732L18.088.2h.765V-11.22Z" transform="translate(531 462)"/><g transform="translate(251 426.445)"><g transform="translate(0 -0.445)"><path class="c" d="M29.378,2.685A26.592,26.592,0,0,1,48.251,10.5a26.771,26.771,0,0,1,5.722,8.483,26.662,26.662,0,0,1-5.722,29.264,26.771,26.771,0,0,1-8.483,5.722A26.662,26.662,0,0,1,10.5,48.251a26.771,26.771,0,0,1-5.722-8.483A26.662,26.662,0,0,1,10.5,10.5,26.592,26.592,0,0,1,29.378,2.685m0-2.685A29.378,29.378,0,1,0,58.755,29.378,29.376,29.376,0,0,0,29.378,0Z" transform="translate(0 0)"/></g><g transform="translate(15 17.555)"><g transform="translate(0 2.069)"><path class="c" d="M164.238,234.913H161.6V215.1l12.829,12.677-2.012,2-8.179-8.322Z" transform="translate(-161.6 -215.1)"/></g><g transform="translate(5.333)"><g transform="translate(0.047)"><path class="c" d="M220.938,199.658l9.565,9.489.01-3.71L218.3,193.3v3.682Z" transform="translate(-218.3 -193.3)"/></g><g transform="translate(0 14.983)"><path class="c" d="M220.438,353.876v4.2H217.8V351.2Z" transform="translate(-217.8 -351.2)"/></g></g><g transform="translate(16.463 1.309)"><path class="c" d="M341.3,227.862h-2.628v-14.4l-1.708,1.7-1.86-1.86,6.2-6.2Z" transform="translate(-335.1 -207.1)"/></g><g transform="translate(25.449 1.85)"><path class="c" d="M432.438,232.822H429.8V215.172l2.638-2.372Z" transform="translate(-429.8 -212.8)"/></g></g></g><g transform="translate(135 202)"><text class="d" transform="translate(188.582 268)"><tspan x="0" y="0">METRO</tspan></text></g></g></svg>